<svg id="Layer_1" data-name="Layer 1" xmlns="http://www.w3.org/2000/svg" width="519.06" height="613.09" viewBox="0 0 519.06 613.09">
  <path d="M123.8,474.23c-8.65-2.67-16.76-5.34-19.74-12.92-6.5-.51-8.24,4.13-11.77,5.56-6.36,2.59-10.81.8-14.85-5.24-8.11-12.11-8.57-26.25-10.51-39.6-2.25-15.47-6.48-31-4.52-46.91a104.67,104.67,0,0,1,2.11-13.59c3.14-12.07,5.39-12.8,18.1-7,1,.45,2.51-.23,4.59-.49,3.8-7.09,1.39-15,1.12-22.52-.43-12.22,1.19-23.77,9.92-33,6.31-6.66,7.2-15.36,9.74-23.37,3-9.35,4.15-19.29,7.37-28.53,3.42-9.8,1.17-16.37-7.85-21.18-6.92-3.7-12.62-9.52-21.31-12.07-6.91,11.67-18.37,9.44-29.12,8.75-4.83-3.81-3.3-8.73-3.33-13.12,0-7.26-.86-14.06-3.7-21-7.2-17.64,1-29.46,20-29.94,3.9-.1,7.8,0,12.76,0,8.81,19.5,19.18,37.47,41.9,42.38,6.16-5.83.8-9.73-1.22-14.17-4-8.93-2.51-12.75,6.63-11.89,5.95.56,8.25-1.5,11-5.29,5-6.87,10.13-13.65,14.81-19.94.95-7.35-6.17-10.63-6.53-17.19,9.48-14.24,23.59-23.68,37-33.26,7.46,1,7.79,9.49,15,11.24,8.33-4.52,17-10.5,26.61-14.18,26.7-10.24,53.28-22.45,83.2-13.91,19.12-6.57,37.35-.61,55.69,3.94,40.24,10,73,31.88,100.13,62.79,4.76,5.44,9.85,10.75,13.63,16.84,3.92,6.31,9.57,8.4,15.77,9.35,4.09,3.24,2.67,7.52,3.17,11.28s2.37,6.1,6.13,6.41c4.29.37,7.88-1,9.07-5.62,1.47-5.7,3.44-11.44,3.78-17.24a310.08,310.08,0,0,0,.1-31.54c-.44-10.48-2-11.59-13.41-12.36-9.09-.62-18.33,1.22-28.18-1.62-3.14-6.55-2.37-13.39-.82-20.52,12.57-6.33,28.3,3.6,38.65-8.7,10.62,3.4,11.84,11.32,11.68,20.43-.28,15.6-.08,31.21-.08,44.69,4.69,4.68,8.16,4.44,11.34,4.49,7.71.12,12.28,4.19,14.36,11.16,3.38,11.3,6.4,22.7,9.62,34.05,2.16,7.57-.7,13.62-6.75,18.07,3.89,3.76,10.41-1.74,11.22,6.22.67,6.65-.29,11.69-6.57,14.81-9,4.47-17.83,2.64-27.37-2a70.19,70.19,0,0,0-.74,35.36c5.49,23.09,7.91,46.21,4.47,69.65,1.83,2.47,4.38,4,6.88,2.79,12.85-6.15,18.12-3.9,18.85,9.54.67,12.45,1.07,25.08-.24,37.43-1.66,15.6-5.17,31-7.91,46.49a24.71,24.71,0,0,1-1.08,3.78c-6.39,18.53-11,20.07-29.49,8.76-4.89,8.12-13.83,11.14-22.48,14.24,2.83,7.36,8.29,5.1,12.36,6.15,11.66,3,15.15,6.18,13.48,17.68a277.59,277.59,0,0,1-9.44,40.1c-2.26,7.48-9.23,9.26-20.1,7.2-14.68-2.79-14.67-2.78-22.57,10.21-3.41,5.61-7.16,11-10.22,16.84-4.86,9.21-7.16,18.57,1.33,27.22,5.52,5.63,3.95,11.89,1.7,18.19-6,16.65-17.52,29.27-30.65,40.32-7.09,6-16.84,4.17-24.63,2-8.76-2.42-14.72-.84-21.58,4.43a128.27,128.27,0,0,1-72.87,26.67,119.2,119.2,0,0,1-67.67-17.23c-6.19-3.71-12.18-7.77-18.26-11.65-3.28-2.1-6.46-5.21-10.72-3.59C192.52,670.09,178,652,165.08,632.07c-7.06-10.92-14.2-22.57-2.61-35.89,4.46-5.12,3.28-13.09.45-18.89-5.16-10.58-11.64-20.52-17.77-30.6-2.43-4-6.43-4.05-10.47-2.92-3.16.88-6.19,2.4-9.39,2.85-10.17,1.42-14-.82-17.28-11-3.25-10-6.11-20.05-8.55-30.23-3.74-15.65,0-21.21,15.68-24.74C118.18,479.92,121.85,480.48,123.8,474.23Zm298.52-50.48c-5.28-15.06-.74-24,11.18-31.24,11.17-6.78,21.17-15.49,31.75-23.26,6-4.42,10.52-9.62,12.07-17.28,2.76-13.69-5.54-23.71-19.25-22.07-5.09.61-10.08,2.69-14.93,4.58-21.34,8.34-42.1,19.39-64.8,22.62-66.47,9.43-132.19,9.12-194.29-22A53.08,53.08,0,0,0,167.23,330c-12.12-1.54-19.84,6.32-19.66,18.65.13,8.88,5.35,14.62,11.71,19.51,13,10,25.9,20.21,39.5,29.37,7.32,4.93,8.31,10.83,7.47,18.54s-6.78,9.1-12.28,10.85c-15.61,5-31.42,9.27-47,14.42-10.84,3.59-14.1,11.64-10.4,23.45,3,9.62,10.74,8.34,17.85,7.09,14.83-2.6,29.64-5.43,44.31-8.79,6.47-1.48,10.09.64,12.34,6.29,3.63,9.12,6.91,18.39,10.79,27.41,4.59,10.66,9.23,13.55,17.39,11.75s12.44-7.2,12.26-17.57a313.08,313.08,0,0,0-2.76-33.33c-.71-5.67-1-11.45,4.75-13.55,9.64-3.5,9-11.69,11-19.12,1.79-6.48,1.53-13,2.3-19.51,2.15-18,8.53-23.71,26.46-23.83,13.8-.09,27.6-.16,41.4,0,14.21.19,18.71,3.28,22.07,17,2.17,8.87,2.95,18.11,3.92,27.23.71,6.71,1.11,13.22,8.71,16.14,6.8,2.61,7.79,8.25,7,14.54-1.1,9.1-2.69,18.16-3.42,27.29-1.15,14.37,3.71,22.71,13.69,24.78,8.52,1.76,11.83-1.64,18.43-16.29,4.49-10,5.39-21.86,15.33-29.64,21.62,1.67,42.55,11.25,65.42,9,1-3.37,2-5.77,2.29-8.25,2.32-18.13,2.25-18.06-14.91-23.41C456.44,434.72,439.64,429.27,422.32,423.75Zm42.15-165.5L504,216.69a213.41,213.41,0,0,0-48.76-65.43c-27-24.59-60.87-35.11-96-41.93-11.07-2.15-18.37,3.75-26.16,12.78a178.32,178.32,0,0,1,34.55,32.17,238.59,238.59,0,0,1,26.9,41.06,16.73,16.73,0,0,0,8.56,7.82c11.31,4.77,21.59,11.3,32.06,18.27-15.91-36.76-37.8-69.33-64.28-99.41,49.73,5.7,85.47,31.83,112,71.83C472,209.55,458.68,221.27,447.05,235Zm-57-38.67c1.65,28.65-14.71,50.47-21.9,73.46,1.5,4.54,4.27,4.65,6.71,5.39,4.82,1.45,8.75,4.34,7.52,9.71-1.13,4.93-5.61,6.74-10.62,7.06-4.51.29-9.2-.79-14.48,2.07l-19.1,36c9.57-1.56,17.82-2.94,26.09-4.25,12.82-2,21-9.24,25.74-21.35,4.28-11,9.38-21.58,14.5-32.17,1.22-2.52,1.35-5.86,5.91-6.65,13.85-2.4,21.14-13.17,29.08-23.51C443.46,246.39,430.34,228.58,407.43,219.58ZM211,224c-7.25,6.44-12.77,11.83-18.8,16.58-8.77,6.92-9,14.59-4.64,24.31,11.24,25.2,23.42,49.8,39,72.69a21.38,21.38,0,0,0,14.08,9.51c10.08,2.17,20.19,4.23,32,6.7L252.44,316c-3.66-.27-6.88-.67-10.09-.71-6.09-.08-12.9-.16-14.11-7.52-1.29-7.9,6.06-8.72,11.45-10.81.85-.32,1.17-2,2-3.67Zm-35.9,12.1c11.55-10,20-20,31.67-27.3-10.07-24.1-14.29-49.06-21.33-73.62-11.16,6.22-19.76,13.66-26.73,23.63-5,7.22-5.71,13.11-3.56,21.67C159.83,199,166.5,216.55,175.14,236.07Z" transform="translate(-47.46 -78.85)"/>
</svg>
