<svg id="Layer_1" data-name="Layer 1" xmlns="http://www.w3.org/2000/svg" width="592" height="529.35" viewBox="0 0 592 529.35">
  <path d="M464.82,660.56c-42.08,0-84.17-.1-126.25.12-6.52,0-10.86-1.66-14.45-7.52q-29.07-47.42-58.87-94.37c-4.48-7.09-2.77-8.76,5.06-8.73,49.14.18,98.29.09,147.43.09,12.12,0,12.12,0,6.94-11.45q-57.54-127-115.12-254c-1.07-2.35-2.5-6.43-3.77-6.44-3.35,0-3.5,4.07-4.59,6.54Q226,454.68,151.05,624.64c-4,9.15-8.36,18.19-12,27.5-2.17,5.59-5.6,7.29-11.39,7.26-36.49-.2-73-.32-109.47.06-9.18.09-9.64-2.68-6.3-10.12q45.66-101.88,90.93-203.93,67.68-152,135.25-304c3.13-7.07,6.71-10.2,15-10.08,35.6.51,71.21.37,106.82.08,6.58,0,9.93,2.19,12.59,8.19Q485.79,394.9,599.4,650.09c4.35,9.78,3.93,10.44-6.57,10.45Q528.82,660.62,464.82,660.56Z" transform="translate(-10 -131.32)"/>
</svg>
